<svg width="18" height="19" viewBox="0 0 18 19" fill="none" xmlns="http://www.w3.org/2000/svg">
<path d="M6.71181 13.7137C4.89463 13.7137 3.35669 13.0843 2.098 11.8256C0.839307 10.5669 0.209961 9.02899 0.209961 7.21181C0.209961 5.39463 0.839307 3.85669 2.098 2.598C3.35669 1.33931 4.89463 0.709961 6.71181 0.709961C8.52899 0.709961 10.0669 1.33931 11.3256 2.598C12.5843 3.85669 13.2137 5.39463 13.2137 7.21181C13.2137 7.94535 13.097 8.63721 12.8636 9.2874C12.6302 9.93758 12.3134 10.5127 11.9133 11.0129L17.5149 16.6145C17.6983 16.7979 17.79 17.0313 17.79 17.3147C17.79 17.5981 17.6983 17.8315 17.5149 18.0149C17.3315 18.1983 17.0981 18.29 16.8147 18.29C16.5313 18.29 16.2979 18.1983 16.1145 18.0149L10.5129 12.4133C10.0127 12.8134 9.43758 13.1302 8.7874 13.3636C8.13721 13.597 7.44535 13.7137 6.71181 13.7137ZM6.71181 11.7131C7.96217 11.7131 9.02497 11.2755 9.90022 10.4002C10.7755 9.52497 11.2131 8.46217 11.2131 7.21181C11.2131 5.96145 10.7755 4.89865 9.90022 4.0234C9.02497 3.14815 7.96217 2.71053 6.71181 2.71053C5.46145 2.71053 4.39865 3.14815 3.5234 4.0234C2.64815 4.89865 2.21053 5.96145 2.21053 7.21181C2.21053 8.46217 2.64815 9.52497 3.5234 10.4002C4.39865 11.2755 5.46145 11.7131 6.71181 11.7131Z" fill="#42526E"/>
</svg>
